# xmcd CD database file
#
# Track frame offsets:
#	150
#	33167
#	55287
#	93073
#	136593
#	161866
#
# Disc length: 2621 seconds
#
# Revision: 0
# Processed by: cddbd v1.5.2PL0 Copyright (c) Steve Scherf et al.
# Submitted via: CDex 1.81
#
DISCID=400a3b06
DTITLE=Wayne Shorter - The Soothsayer
DYEAR=1979
DGENRE=Jazz
TTITLE0=Lost
TTITLE1=Angola
TTITLE2=The Big Push
TTITLE3=The Soothsayer
TTITLE4=Lady Day
TTITLE5=Valse Triste
EXTD=YEAR: 1979
EXTT0=
EXTT1=
EXTT2=
EXTT3=
EXTT4=
EXTT5=
PLAYORDER=
